<svg version="1.1" xmlns="http://www.w3.org/2000/svg" viewBox="0 0 250 250"><desc>Created with Snap</desc><defs></defs><g transform="matrix(0.0449,0,0,0.0449,39.7458,215.2634)"><rect x="-250.8799964904785" y="-4791.04028930664" width="4296.70419921875" height="5564.160333251953" style="" fill="#000000"></rect><g transform="matrix(52.3841,0,0,52.3841,-721.711,-5496.0062)"><path d="M84.811,48.942L68.319,20.38c-0.377-0.651-1.079-1.058-1.832-1.058H33.509c-0.753,0-1.455,0.406-1.832,1.059L15.189,48.942  c-0.378,0.653-0.378,1.464,0,2.116l16.487,28.561c0.377,0.652,1.078,1.059,1.832,1.059h32.979c0.754,0,1.455-0.406,1.832-1.059  l16.491-28.561C85.188,50.406,85.188,49.594,84.811,48.942z M80.535,50l-15.27,26.444H34.73L19.464,50L34.73,23.556h30.535  L80.535,50z" style="" fill="#ffffff"></path><desc>Created with Snap</desc><defs></defs></g><g><g transform="matrix(1.024,0,0,-1.024,0,0)"><path d="M626 223Q639 223 646 211Q654 199 654 178Q654 138 635 116Q590 61 544 28Q498 -5 435 -5Q358 -5 311 39Q264 83 264 156Q264 195 304 212Q348 231 367 252Q386 274 386 305Q386 323 378 332Q371 341 360 341Q333 341 300 302Q268 263 240 201Q212 140 196 75Q185 28 170 11Q156 -5 125 -5Q94 -5 79 17Q65 40 60 87Q55 134 55 225Q55 379 86 546Q118 713 179 826Q241 940 327 940Q373 940 401 900Q430 861 430 798Q430 697 371 588Q312 480 179 335Q176 283 176 228Q224 353 286 409Q348 466 402 466Q452 466 482 432Q513 398 513 348Q513 293 485 247Q457 201 389 165Q393 138 413 121Q434 105 463 105Q494 105 523 129Q552 153 599 209Q611 223 626 223ZM306 841Q288 841 266 789Q244 738 223 650Q203 563 190 460Q252 533 292 619Q333 705 333 775Q333 807 326 824Q319 841 306 841ZM696 -5Q634 -5 597 40Q560 85 560 158Q560 238 597 309Q634 381 695 424Q757 468 826 468Q848 468 855 459Q863 451 868 429Q889 433 912 433Q961 433 961 398Q961 377 946 298Q923 183 923 138Q923 123 930 114Q938 105 950 105Q969 105 996 129Q1023 154 1069 209Q1081 223 1096 223Q1109 223 1116 211Q1124 199 1124 178Q1124 138 1105 116Q1064 65 1018 30Q972 -5 929 -5Q896 -5 868 17Q841 40 827 79Q775 -5 696 -5ZM732 96Q754 96 774 122Q794 148 803 191L840 375Q798 374 762 343Q727 313 706 263Q685 213 685 157Q685 126 697 111Q710 96 732 96ZM1114 -5Q1076 -5 1060 35Q1045 75 1045 163Q1045 293 1082 410Q1091 439 1111 452Q1132 466 1169 466Q1189 466 1197 461Q1205 456 1205 442Q1205 426 1190 370Q1180 330 1174 300Q1168 270 1164 226Q1197 312 1238 366Q1279 420 1318 443Q1358 466 1391 466Q1456 466 1456 401Q1456 362 1434 260Q1415 173 1415 145Q1415 105 1444 105Q1464 105 1491 129Q1519 154 1565 209Q1577 223 1592 223Q1605 223 1612 211Q1620 199 1620 178Q1620 138 1601 116Q1558 63 1508 29Q1459 -5 1396 -5Q1345 -5 1319 24Q1293 54 1293 110Q1293 138 1307 210Q1320 273 1320 297Q1320 313 1309 313Q1296 313 1272 279Q1249 246 1224 191Q1200 136 1185 75Q1174 28 1159 11Q1145 -5 1114 -5ZM1646 532Q1604 532 1583 551Q1562 571 1562 606Q1562 641 1589 664Q1617 688 1658 688Q1695 688 1718 670Q1741 652 1741 619Q1741 579 1715 555Q1689 532 1646 532ZM1826 221Q1839 221 1846 208Q1854 196 1854 177Q1854 154 1847 141Q1840 128 1825 118Q1755 72 1638 -9Q1599 -217 1537 -336Q1475 -455 1379 -455Q1327 -455 1295 -424Q1264 -392 1264 -341Q1264 -270 1319 -190Q1374 -109 1526 9L1533 60Q1547 156 1555 249Q1561 303 1574 410Q1578 439 1596 452Q1614 466 1651 466Q1681 466 1690 457Q1700 448 1700 432Q1700 386 1667 178L1657 109Q1737 169 1803 213Q1816 221 1826 221ZM1390 -358Q1416 -358 1447 -299Q1478 -240 1505 -109Q1429 -174 1395 -227Q1362 -279 1362 -319Q1362 -358 1390 -358ZM1895 -5Q1850 -5 1821 36Q1793 78 1793 140Q1793 215 1803 277Q1813 340 1836 410Q1846 440 1864 453Q1882 466 1921 466Q1943 466 1951 459Q1960 452 1960 438Q1960 430 1949 384Q1939 347 1933 317Q1913 212 1913 177Q1913 156 1918 147Q1923 139 1934 139Q1949 139 1971 169Q1994 199 2019 260Q2045 321 2069 410Q2077 440 2093 453Q2110 466 2143 466Q2166 466 2175 460Q2184 455 2184 440Q2184 415 2159 303Q2131 175 2131 145Q2131 126 2139 115Q2147 105 2160 105Q2180 105 2207 129Q2235 154 2281 209Q2293 223 2308 223Q2321 223 2328 211Q2336 199 2336 178Q2336 138 2317 116Q2274 63 2224 29Q2175 -5 2112 -5Q2064 -5 2041 32Q2019 69 2019 136Q2002 68 1968 31Q1934 -5 1895 -5ZM2326 -5Q2288 -5 2272 35Q2257 75 2257 163Q2257 293 2294 410Q2303 439 2323 452Q2344 466 2381 466Q2401 466 2409 461Q2417 456 2417 442Q2417 426 2402 370Q2392 330 2386 300Q2380 270 2376 226Q2409 312 2450 366Q2491 420 2530 443Q2570 466 2603 466Q2668 466 2668 401Q2668 388 2659 338Q2651 298 2651 288Q2651 253 2676 253Q2704 253 2748 297Q2761 310 2775 310Q2788 310 2795 298Q2803 287 2803 268Q2803 231 2783 210Q2755 181 2717 160Q2680 140 2638 140Q2585 140 2557 167Q2530 194 2530 240Q2530 255 2533 270Q2535 290 2535 297Q2535 313 2524 313Q2509 313 2484 279Q2460 246 2436 191Q2412 136 2397 75Q2386 28 2371 11Q2357 -5 2326 -5ZM3156 223Q3169 223 3176 211Q3184 199 3184 178Q3184 138 3165 116Q3128 71 3060 33Q2993 -5 2916 -5Q2811 -5 2753 52Q2695 109 2695 208Q2695 277 2724 336Q2753 396 2804 431Q2856 466 2921 466Q2979 466 3014 431Q3049 397 3049 338Q3049 269 2999 219Q2950 170 2832 141Q2857 95 2927 95Q2972 95 3029 126Q3087 158 3129 209Q3141 223 3156 223ZM2904 368Q2867 368 2841 325Q2816 282 2816 221L2816 219Q2875 233 2909 261Q2943 289 2943 326Q2943 345 2932 356Q2922 368 2904 368ZM3174 -5Q3136 -5 3120 35Q3105 75 3105 163Q3105 293 3142 410Q3151 439 3171 452Q3192 466 3229 466Q3249 466 3257 461Q3265 456 3265 442Q3265 426 3250 370Q3240 330 3234 300Q3228 270 3224 226Q3257 312 3298 366Q3339 420 3378 443Q3418 466 3451 466Q3516 466 3516 401Q3516 388 3507 338Q3499 298 3499 288Q3499 253 3524 253Q3552 253 3596 297Q3609 310 3623 310Q3636 310 3643 298Q3651 287 3651 268Q3651 231 3631 210Q3603 181 3565 160Q3528 140 3486 140Q3433 140 3405 167Q3378 194 3378 240Q3378 255 3381 270Q3383 290 3383 297Q3383 313 3372 313Q3357 313 3332 279Q3308 246 3284 191Q3260 136 3245 75Q3234 28 3219 11Q3205 -5 3174 -5Z" style="" fill="#ffffff"></path></g></g></g></svg>