<?xml version="1.0" standalone="no"?>
<!DOCTYPE svg PUBLIC "-//W3C//DTD SVG 20010904//EN"
 "http://www.w3.org/TR/2001/REC-SVG-20010904/DTD/svg10.dtd">
<svg version="1.0" xmlns="http://www.w3.org/2000/svg"
 width="100.000000pt" height="35.000000pt" viewBox="0 0 1200.000000 464.000000"
 preserveAspectRatio="xMidYMid meet">

<g transform="translate(0.000000,464.000000) scale(0.100000,-0.100000)"
fill="#000000" stroke="none">
<path d="M2740 3803 c-41 -18 -80 -33 -86 -33 -6 0 -87 -208 -179 -462 -92
-255 -179 -485 -194 -512 -29 -54 -77 -91 -133 -100 -31 -6 -38 -11 -38 -29 0
-22 1 -22 200 -23 200 0 200 0 200 22 0 18 -7 23 -47 29 -27 3 -59 13 -72 22
-30 19 -27 41 30 202 l42 121 206 0 207 0 42 -119 c70 -195 68 -216 -19 -227
-41 -6 -49 -10 -49 -28 0 -22 1 -22 250 -21 l250 0 0 22 c0 18 -7 23 -37 29
-46 8 -78 26 -99 59 -8 13 -102 262 -207 553 l-192 528 -75 -33z m19 -428 c45
-126 81 -231 81 -232 0 -2 -76 -3 -170 -3 -93 0 -170 2 -170 4 0 5 148 416
161 445 5 13 12 22 14 20 2 -3 40 -108 84 -234z"/>
<path d="M6435 3804 c-212 -51 -391 -229 -440 -435 -20 -85 -19 -254 1 -333
45 -174 184 -320 365 -383 100 -35 251 -42 369 -19 242 49 423 224 475 460 34
153 9 334 -61 454 -67 113 -217 221 -359 257 -75 19 -269 18 -350 -1z m247
-64 c102 -31 177 -102 238 -225 48 -96 70 -202 70 -327 -1 -227 -81 -398 -218
-465 -50 -24 -69 -28 -147 -28 -78 0 -98 4 -153 29 -116 54 -201 170 -243 333
-23 93 -26 275 -5 375 53 249 241 375 458 308z"/>
<path d="M8983 3802 c-154 -55 -230 -174 -221 -346 4 -69 9 -92 35 -137 37
-67 113 -129 234 -195 116 -62 173 -112 195 -169 34 -91 -8 -205 -91 -245 -66
-32 -175 -26 -233 12 -45 30 -87 94 -114 173 -16 47 -39 68 -52 46 -4 -5 -1
-64 6 -130 l11 -120 48 -21 c144 -61 297 -66 411 -13 88 41 132 83 170 161 30
60 33 75 33 157 0 78 -4 97 -27 140 -42 80 -109 134 -268 216 -144 74 -193
132 -194 229 0 108 69 186 176 197 78 8 138 -20 178 -83 16 -26 33 -62 36 -81
5 -27 11 -33 31 -33 l24 0 -6 88 c-10 141 -12 149 -43 156 -15 4 -85 9 -157
12 -110 4 -138 2 -182 -14z"/>
<path d="M800 3777 c0 -23 5 -25 56 -29 95 -8 89 29 92 -517 2 -465 2 -478
-18 -503 -15 -20 -32 -27 -75 -33 -48 -6 -55 -9 -55 -29 l0 -23 168 1 c92 1
248 -1 347 -4 209 -5 257 3 394 72 197 98 311 287 311 513 0 267 -153 466
-420 546 -71 21 -96 23 -437 27 l-363 3 0 -24z m691 -69 c185 -69 283 -220
296 -453 7 -130 -9 -227 -54 -315 -59 -120 -149 -194 -273 -226 -115 -29 -251
-5 -283 50 -9 15 -13 147 -15 500 l-3 478 133 -4 c110 -4 145 -9 199 -30z"/>
<path d="M3430 3775 c0 -22 4 -25 34 -25 61 0 95 -18 106 -58 8 -25 10 -190 8
-495 l-3 -459 -22 -18 c-13 -10 -45 -21 -73 -25 -44 -6 -50 -10 -50 -31 l0
-24 458 0 458 0 28 126 c20 87 25 129 18 136 -17 17 -40 2 -47 -31 -11 -50
-78 -117 -138 -137 -66 -23 -304 -26 -353 -6 -59 25 -59 22 -59 517 0 520 -6
488 91 501 48 6 54 9 54 30 l0 24 -255 0 -255 0 0 -25z"/>
<path d="M4480 3775 c0 -23 4 -25 45 -25 70 0 113 -22 120 -62 3 -18 5 -239 3
-491 l-3 -459 -22 -18 c-13 -10 -45 -21 -73 -25 -42 -6 -50 -10 -50 -28 0 -22
0 -22 260 -22 l260 0 0 23 c0 17 -6 22 -27 22 -49 0 -102 20 -115 43 -7 14
-13 99 -16 245 l-5 222 302 0 301 0 0 -224 c0 -265 -1 -269 -95 -281 -49 -6
-56 -9 -53 -27 3 -20 8 -21 261 -22 256 -1 257 -1 257 20 0 18 -8 22 -49 28
-27 4 -60 15 -73 25 l-23 19 0 481 c0 479 0 480 22 502 14 15 38 23 72 27 46
4 51 7 51 28 l0 24 -260 0 -260 0 0 -24 c0 -21 5 -24 58 -29 91 -10 92 -11 92
-253 l0 -204 -297 2 -298 3 0 185 c0 102 4 198 8 213 9 33 56 57 112 57 31 0
35 3 35 25 l0 25 -270 0 -270 0 0 -25z"/>
<path d="M7350 3773 c0 -17 6 -23 23 -23 43 0 97 -21 109 -43 10 -16 14 -123
18 -402 6 -361 7 -383 28 -440 61 -165 172 -233 393 -243 244 -10 393 52 472
196 45 83 49 117 56 509 6 361 7 373 27 393 12 12 40 24 63 27 35 5 41 9 41
29 l0 24 -190 0 -190 0 0 -24 c0 -20 6 -24 46 -29 32 -3 55 -13 73 -31 l26
-26 3 -343 c4 -355 -2 -427 -38 -497 -21 -41 -73 -92 -115 -113 -81 -40 -229
-45 -316 -11 -21 9 -59 38 -83 65 -73 81 -76 105 -76 536 0 427 -4 409 88 420
45 5 52 9 52 27 0 22 -1 22 -255 21 l-255 0 0 -22z"/>
<path d="M9600 3775 c0 -22 4 -25 34 -25 61 0 95 -18 106 -58 8 -25 10 -190 8
-495 l-3 -459 -22 -18 c-13 -10 -45 -21 -73 -25 -43 -6 -50 -10 -50 -29 l0
-22 255 1 c254 0 255 0 255 22 0 18 -8 22 -50 28 -28 4 -60 15 -73 25 l-22 18
0 481 c0 479 0 480 22 502 14 15 38 23 72 27 46 4 51 7 51 28 l0 24 -255 0
-255 0 0 -25z"/>
<path d="M10240 3775 c0 -22 4 -25 35 -25 61 0 103 -24 110 -62 3 -18 5 -239
3 -491 l-3 -459 -22 -18 c-13 -10 -45 -21 -73 -25 -44 -6 -50 -10 -50 -31 l0
-24 449 0 449 0 30 127 c22 94 27 130 19 135 -23 15 -34 7 -48 -34 -19 -59
-83 -123 -139 -139 -26 -7 -102 -13 -180 -13 -214 -1 -215 -1 -215 284 l0 205
75 3 c184 8 242 -16 256 -104 5 -34 10 -44 25 -44 18 0 19 10 19 186 l0 185
-22 -3 c-19 -2 -24 -11 -29 -45 -10 -78 -44 -93 -216 -93 l-113 0 0 220 0 220
148 0 c81 0 165 -5 186 -11 55 -15 92 -58 106 -123 9 -46 14 -53 30 -49 19 5
20 15 20 129 l0 124 -425 0 -425 0 0 -25z"/>
<path d="M9029 2028 c-1 -2 -9 -65 -18 -140 l-16 -138 22 0 c18 0 25 9 33 40
15 56 56 99 105 110 22 5 88 10 148 10 l107 0 0 -480 c0 -402 -2 -486 -15
-509 -16 -31 -39 -41 -102 -41 -39 0 -43 -2 -43 -25 l0 -25 271 0 270 0 -3 23
c-2 18 -11 23 -53 28 -66 8 -85 17 -96 46 -5 14 -9 235 -9 505 l0 480 131 -4
131 -4 28 -30 c18 -21 29 -47 34 -82 6 -48 8 -51 29 -43 20 7 23 17 29 102 4
52 9 111 11 131 6 44 -16 59 -44 29 -28 -29 -87 -33 -508 -29 l-384 3 -15 23
c-12 18 -38 30 -43 20z"/>
<path d="M7860 1999 c-107 -21 -193 -88 -241 -188 -31 -65 -37 -180 -13 -258
25 -81 114 -169 247 -243 171 -95 209 -139 208 -241 0 -137 -101 -216 -245
-195 -85 13 -163 92 -194 197 -15 51 -20 59 -41 59 -22 0 -23 -3 -18 -37 3
-21 9 -78 13 -126 7 -85 8 -88 37 -104 242 -125 528 -47 608 166 17 46 20 72
17 147 -3 81 -7 98 -34 140 -40 65 -119 126 -254 199 -127 67 -172 111 -190
184 -20 82 7 155 76 207 29 22 50 29 99 32 105 7 174 -45 206 -156 9 -30 17
-42 28 -40 14 3 16 21 14 118 -2 70 -7 116 -14 121 -13 7 -197 30 -237 28 -15
-1 -47 -5 -72 -10z"/>
<path d="M1813 1983 l-173 -3 0 -25 c0 -22 4 -25 38 -25 20 0 48 -6 62 -13 48
-24 52 -60 48 -447 -5 -407 -7 -420 -87 -500 -59 -58 -123 -81 -224 -81 -121
0 -190 27 -241 93 -58 77 -60 92 -64 483 -2 198 -1 374 3 393 9 50 37 72 90
72 41 0 45 2 45 25 l0 25 -250 0 -250 0 0 -25 c0 -22 4 -25 34 -25 48 0 82
-15 98 -42 10 -17 14 -117 19 -408 4 -333 8 -392 23 -435 59 -167 187 -240
421 -239 66 0 144 5 172 12 154 35 254 132 294 284 7 26 13 178 15 383 3 187
7 355 10 373 7 48 36 72 84 72 38 0 40 2 40 30 0 23 -4 29 -17 28 -10 -1 -96
-4 -190 -5z"/>
<path d="M6568 1983 l-218 -3 0 -25 c0 -23 4 -25 41 -25 41 0 78 -14 91 -34 4
-6 8 -226 8 -489 l0 -478 -25 -24 c-18 -19 -35 -25 -70 -25 -41 0 -45 -2 -45
-25 l0 -25 255 0 255 0 0 25 c0 23 -3 25 -49 25 -38 0 -56 6 -78 24 l-28 24
-3 211 -4 211 72 0 c69 0 71 -1 88 -31 43 -79 191 -322 244 -401 l59 -88 159
0 c149 0 160 1 160 18 0 13 -12 23 -41 31 -73 22 -166 137 -331 406 l-67 109
62 33 c114 60 167 145 167 268 0 132 -88 230 -245 271 -63 17 -185 22 -457 17z
m336 -79 c92 -32 146 -119 146 -236 0 -83 -19 -138 -65 -183 -48 -49 -102 -67
-207 -69 l-73 -1 -3 253 -2 252 78 0 c46 0 98 -7 126 -16z"/>
<path d="M2152 1958 c2 -17 14 -25 52 -34 64 -17 98 -42 109 -83 4 -18 7 -218
5 -444 -3 -359 -5 -417 -20 -449 -19 -42 -61 -68 -113 -68 -31 0 -35 -3 -35
-25 l0 -25 215 0 215 0 0 25 c0 23 -3 25 -49 25 -68 0 -106 32 -121 103 -6 33
-9 182 -8 409 l3 357 335 -421 c441 -556 426 -538 455 -538 l24 0 3 518 c3
456 5 521 20 554 19 42 61 68 113 68 31 0 35 3 35 25 l0 25 -210 0 -210 0 0
-25 c0 -22 4 -25 35 -25 20 0 51 -7 71 -15 62 -26 65 -42 62 -418 l-3 -334
-321 406 -321 406 -172 3 -172 2 3 -22z"/>
<path d="M3510 1955 c0 -23 3 -25 49 -25 33 0 56 -6 72 -19 l24 -19 3 -456 c2
-294 -1 -469 -7 -494 -12 -45 -41 -62 -101 -62 -36 0 -40 -3 -40 -25 l0 -25
255 0 255 0 0 24 c0 21 -5 24 -57 28 -99 8 -93 -25 -93 525 l0 474 25 24 c18
18 35 25 65 25 36 0 40 2 40 25 l0 25 -245 0 -245 0 0 -25z"/>
<path d="M4080 1955 c0 -19 5 -25 23 -25 30 0 83 -33 98 -62 7 -13 103 -255
214 -538 l201 -515 34 0 34 0 200 518 c129 331 211 530 229 552 17 21 41 38
58 42 22 4 29 11 29 29 l0 24 -170 0 -170 0 0 -24 c0 -21 5 -24 50 -28 57 -6
80 -21 80 -54 0 -23 -256 -741 -270 -757 -6 -6 -259 688 -274 753 -8 37 19 60
71 60 39 0 43 2 43 25 l0 25 -240 0 -240 0 0 -25z"/>
<path d="M5280 1955 c0 -22 4 -25 38 -25 50 0 71 -17 82 -65 13 -55 13 -880 0
-926 -12 -41 -41 -59 -100 -59 -37 0 -40 -2 -40 -27 l0 -28 440 -2 440 -2 5
22 c3 12 16 69 29 127 14 57 22 108 20 112 -14 22 -41 6 -52 -30 -19 -62 -75
-119 -134 -137 -71 -21 -297 -21 -337 0 -44 22 -51 58 -51 276 l0 199 115 0
c138 0 177 -12 194 -60 6 -18 11 -46 11 -62 0 -24 4 -29 21 -26 20 3 21 9 22
191 2 183 2 187 -19 187 -17 0 -22 -9 -30 -52 -14 -79 -35 -90 -188 -96 l-126
-5 0 222 0 221 149 0 c82 0 162 -5 178 -11 49 -18 81 -58 94 -116 9 -40 16
-53 31 -53 16 0 18 10 18 125 l0 125 -405 0 -405 0 0 -25z"/>
<path d="M8410 1955 c0 -23 3 -25 50 -25 37 0 55 -5 70 -20 19 -19 20 -33 20
-504 l0 -485 -26 -20 c-18 -14 -41 -21 -70 -21 -40 0 -44 -2 -44 -25 l0 -25
255 0 255 0 0 24 c0 21 -5 24 -56 28 -39 3 -61 11 -77 27 -22 21 -22 25 -25
434 -2 226 -1 441 3 476 9 85 34 111 105 111 47 0 50 2 50 25 l0 25 -255 0
-255 0 0 -25z"/>
<path d="M10102 1959 c2 -14 16 -25 43 -34 22 -8 49 -26 60 -40 11 -14 91
-139 178 -277 l158 -251 -3 -214 -3 -215 -28 -24 c-22 -18 -40 -24 -78 -24
-46 0 -49 -2 -49 -25 l0 -25 265 0 265 0 0 25 c0 22 -4 25 -40 25 -51 0 -85
16 -99 47 -7 15 -11 108 -11 261 l0 237 140 215 c156 242 184 276 235 286 28
5 35 11 35 30 l0 24 -181 0 -180 0 3 -22 c2 -19 11 -24 51 -30 58 -8 80 -24
74 -54 -4 -22 -228 -384 -238 -384 -3 0 -32 46 -64 103 -33 56 -83 142 -112
191 -71 119 -69 141 12 148 33 2 41 7 43 26 l3 22 -241 0 c-240 0 -241 0 -238
-21z"/>
</g>
</svg>
