<svg transform="rotate(180)" width="100%" height="100%" id="svg" viewBox="100 0 1440 500" xmlns="http://www.w3.org/2000/svg" class="transition duration-300 ease-in-out delay-150"><path d="M 0,700 C 0,700 0,175 0,175 C 36.213824145130076,180.0980656337674 72.42764829026015,185.19613126753478 111,179 C 149.57235170973985,172.80386873246522 190.5032309840895,155.3135405636283 230,140 C 269.4967690159105,124.6864594363717 307.5594277733817,111.54970647795207 347,129 C 386.4405722266183,146.45029352204793 427.2590579223836,194.48763352456336 463,207 C 498.7409420776164,219.51236647543664 529.404340537084,196.49975942379444 559,177 C 588.595659462916,157.50024057620556 617.123579929281,141.51332878025886 658,151 C 698.876420070719,160.48667121974114 752.101339745792,195.44692545517006 792,206 C 831.898660254208,216.55307454482994 858.4710610875513,202.69896939906093 890,187 C 921.5289389124487,171.30103060093907 958.0144159040019,153.75719694858617 993,170 C 1027.985584095998,186.24280305141383 1061.4712752964415,236.27224280659433 1097,239 C 1132.5287247035585,241.72775719340567 1170.1004829102321,197.1538318250366 1207,164 C 1243.8995170897679,130.8461681749634 1280.12679306263,109.11242989325936 1324,128 C 1367.87320693737,146.88757010674064 1419.3923448392484,206.39644860192593 1440,221 C 1460.6076551607516,235.60355139807407 1450.3038275803758,205.30177569903702 1440,175 C 1440,175 1440,700 1440,700 Z" stroke="none" stroke-width="0" fill="#ff008066" class="transition-all duration-300 ease-in-out delay-150 path-0"></path><path d="M 0,700 C 0,700 0,350 0,350 C 45.10268175358593,345.0888567636116 90.20536350717185,340.17771352722326 131,341 C 171.79463649282815,341.82228647277674 208.28122772489849,348.37800265471856 242,364 C 275.7187722751015,379.62199734528144 306.6697255932339,404.31027585390245 335,410 C 363.3302744067661,415.68972414609755 389.03986990216566,402.3808939296716 422,377 C 454.96013009783434,351.6191060703284 495.1707947981033,314.1661484274111 538,307 C 580.8292052018967,299.8338515725889 626.2769509054209,322.95451236068413 662,327 C 697.7230490945791,331.04548763931587 723.721401580213,316.01580212985226 764,331 C 804.278598419787,345.98419787014774 858.8374427737272,390.98227911990665 899,378 C 939.1625572262728,365.01772088009335 964.9288273248785,294.05508139052097 997,302 C 1029.0711726751215,309.94491860947903 1067.447247926759,396.79739531800954 1106,411 C 1144.552752073241,425.20260468199046 1183.2821809680854,366.7553373374407 1216,329 C 1248.7178190319146,291.2446626625593 1275.4240282009,274.1812553322275 1316,301 C 1356.5759717991,327.8187446677725 1411.0217062283143,398.5196413336493 1434,414 C 1456.9782937716857,429.4803586663507 1448.4891468858427,389.7401793331753 1440,350 C 1440,350 1440,700 1440,700 Z" stroke="none" stroke-width="0" fill="#ff008088" class="transition-all duration-300 ease-in-out delay-150 path-1"></path><path d="M 0,700 C 0,700 0,525 0,525 C 43.80651438940042,555.6463789363438 87.61302877880084,586.2927578726877 122,586 C 156.38697122119916,585.7072421273123 181.35439927419708,554.475347445593 216,535 C 250.64560072580292,515.524652554407 294.969374124411,507.8058523449401 338,500 C 381.030625875589,492.1941476550599 422.76810422815913,484.30124317464663 457,492 C 491.23189577184087,499.69875682535337 517.9582089629523,522.9891749564734 553,535 C 588.0417910370477,547.0108250435266 631.3990599200313,547.7420569994595 667,527 C 702.6009400799687,506.2579430005405 730.4455513569222,464.0425970456887 762,467 C 793.5544486430778,469.9574029543113 828.8187346522802,518.0875548177854 870,526 C 911.1812653477198,533.9124451822146 958.2795100339561,501.6071836831693 1001,509 C 1043.720489966044,516.3928163168307 1082.063225211896,563.4837104495375 1123,555 C 1163.936774788104,546.5162895504625 1207.4675891184609,482.45797451868066 1238,481 C 1268.5324108815391,479.54202548131934 1286.0664183142605,540.6843914757399 1322,543 C 1357.9335816857395,545.3156085242601 1412.2667376244972,488.8044595783601 1435,476 C 1457.7332623755028,463.1955404216399 1448.8666311877514,494.09777021081993 1440,525 C 1440,525 1440,700 1440,700 Z" stroke="none" stroke-width="0" fill="#ff0080ff" class="transition-all duration-300 ease-in-out delay-150 path-2"></path></svg>